<?xml version="1.0" encoding="UTF-8" standalone="no"?>
<svg
   data-name="Layer 1"
   viewBox="0 0 100 100"
   x="0px"
   y="0px"
   version="1.1"
   id="svg6"
   sodipodi:docname="Icon_PauseHand.svg"
   width="100"
   height="100"
   inkscape:version="1.4 (86a8ad7, 2024-10-11)"
   xmlns:inkscape="http://www.inkscape.org/namespaces/inkscape"
   xmlns:sodipodi="http://sodipodi.sourceforge.net/DTD/sodipodi-0.dtd"
   xmlns="http://www.w3.org/2000/svg"
   xmlns:svg="http://www.w3.org/2000/svg"
   xmlns:rdf="http://www.w3.org/1999/02/22-rdf-syntax-ns#"
   xmlns:cc="http://creativecommons.org/ns#"
   xmlns:dc="http://purl.org/dc/elements/1.1/">
  <defs
     id="defs6" />
  <sodipodi:namedview
     id="namedview6"
     pagecolor="#505050"
     bordercolor="#eeeeee"
     borderopacity="1"
     inkscape:showpageshadow="0"
     inkscape:pageopacity="0"
     inkscape:pagecheckerboard="0"
     inkscape:deskcolor="#505050"
     inkscape:zoom="10.714082"
     inkscape:cx="43.914168"
     inkscape:cy="50.214288"
     inkscape:window-width="5120"
     inkscape:window-height="2089"
     inkscape:window-x="1192"
     inkscape:window-y="-8"
     inkscape:window-maximized="1"
     inkscape:current-layer="svg6" />
  <title
     id="title1">Artboard 11</title>
  <circle
     style="fill:#ffffff;fill-opacity:0.25;stroke-width:47.2441;stroke-opacity:0.495627;paint-order:stroke markers fill"
     id="path1-0"
     cx="50"
     cy="50"
     r="50" />
  <g
     id="g1"
     transform="matrix(0.75962407,0,0,0.75962407,12.19009,12.047942)">
    <path
       d="m 3.5661131,65.521972 2.8512909,2.239559 c 0.7191073,0.5734 1.3240562,1.27683 1.7833529,2.073666 l 7.2578301,12.29684 c 5.845574,9.908285 16.490372,15.99159 27.994493,15.998335 h 4.147332 c 3.456109,0 3.456109,-5.184166 0,-5.184166 H 43.45308 C 33.771944,92.937035 24.816894,87.810847 19.906601,79.467377 L 12.64877,67.170537 c -0.79761,-1.33894 -1.838498,-2.51697 -3.0690254,-3.473391 L 6.6766123,61.447218 C 6.0055371,60.917372 5.9156432,59.933269 6.479614,59.290605 c 2.4537597,-2.808563 6.748232,-3.020229 9.466285,-0.466574 l 13.209253,14.515662 c 2.335237,2.394004 5.998842,-0.95189 3.825914,-3.494128 L 19.699235,55.329903 19.574814,55.205484 C 14.752035,50.60755 7.0772665,50.927333 2.6537001,55.91053 c -2.49109696,2.878209 -2.07576269,7.253379 0.912413,9.611442 z"
       id="path1"
       style="fill:#ffffff;fill-opacity:1;stroke-width:1.03683"
       sodipodi:nodetypes="cccccssccccccccccccc" />
    <path
       d="M 61.628763,7.9570004 C 60.30886,7.957587 59.005587,8.2515315 57.813218,8.8175718 57.647562,3.9940289 53.758,0.13172933 48.933413,0 44.108827,-0.13172932 40.014307,3.5125748 39.585692,8.3198919 33.4979,5.2714785 26.336689,9.723346 26.37644,16.53161 v 39.181922 c 0,3.456109 5.184164,3.456109 5.184164,0 V 16.53161 c 0,-5.280933 7.921406,-5.280933 7.921406,0 v 28.284806 c 0,3.456109 5.184164,3.456109 5.184164,0 V 9.2219367 c 0,-5.2809341 7.921405,-5.2809341 7.921405,0 V 44.660892 c 0,3.456108 5.184165,3.456108 5.184165,0 V 16.935975 c 0,-5.059743 7.589619,-5.059743 7.589619,0 v 24.261894 c 0,3.456109 5.184164,3.456109 5.184164,0 V 25.272112 c 0,-4.672658 7.008992,-4.672658 7.008992,0 v 15.023712 c 0,3.456109 5.184165,3.456109 5.184165,0 V 25.272112 C 82.716056,19.02967 76.307662,14.852183 70.587001,17.350708 v -0.414733 c -0.0057,-4.948508 -4.009756,-8.9618549 -8.958238,-8.9789746 z"
       id="path2"
       style="fill:#ffffff;fill-opacity:1;stroke-width:1.03683"
       sodipodi:nodetypes="ccsccsssssssssssssssssscccc" />
    <path
       id="timer"
       d="M 71.018191,99.791268 A 24.851706,24.851706 0 0 1 53.991962,59.805364 2.0548165,2.0548165 0 0 1 57.084628,59.53502 l 1.518546,1.423116 a 2.1006238,2.1006238 0 0 1 0.256015,2.724216 18.657375,18.657375 0 1 0 33.397493,10.027109 18.961707,18.961707 0 0 0 -16.542734,-17.119897 v 3.937228 a 2.0736661,2.0736661 0 0 1 -2.073667,2.073667 h -2.073667 a 2.0736661,2.0736661 0 0 1 -2.073666,-2.073667 v -8.294664 a 2.0736661,2.0736661 0 0 1 2.073666,-2.073666 h 2.073667 a 1.8932572,1.8932572 0 0 1 0.210229,0.04254 25.298727,25.298727 0 0 1 24.589078,22.766282 24.911449,24.911449 0 0 1 -27.421397,26.823989 z M 69.515219,75.263695 a 4.1390376,4.1390376 0 1 0 4.347443,-4.346405 l -8.934454,-6.530576 a 1.2495705,1.2495705 0 0 0 -1.57045,0.121247 l -0.251701,0.251184 a 1.2492179,1.2492179 0 0 0 -0.121518,1.57018 z"
       style="fill:#ffffff;fill-opacity:1;stroke-width:2.07367" />
  </g>
  <metadata
     id="metadata6">
    <rdf:RDF>
      <cc:Work
         rdf:about="">
        <dc:title>Artboard 11</dc:title>
      </cc:Work>
    </rdf:RDF>
  </metadata>
</svg>
